<svg class="animated" id="freepik_stories-credit-card" xmlns="http://www.w3.org/2000/svg" viewBox="0 0 500 372.61" version="1.1" xmlns:xlink="http://www.w3.org/1999/xlink" xmlns:svgjs="http://svgjs.com/svgjs"><style>svg#freepik_stories-credit-card:not(.animated) .animable {opacity: 0;}svg#freepik_stories-credit-card.animated #freepik--background-complete--inject-15 {animation: 1s 1 forwards cubic-bezier(.36,-0.01,.5,1.38) slideLeft;animation-delay: 0s;}svg#freepik_stories-credit-card.animated #freepik--Shadow--inject-15 {animation: 1s 1 forwards cubic-bezier(.36,-0.01,.5,1.38) lightSpeedRight;animation-delay: 0s;}svg#freepik_stories-credit-card.animated #freepik--Coins--inject-15 {animation: 1s 1 forwards cubic-bezier(.36,-0.01,.5,1.38) fadeIn;animation-delay: 0s;}svg#freepik_stories-credit-card.animated #freepik--credit-card--inject-15 {animation: 1s 1 forwards cubic-bezier(.36,-0.01,.5,1.38) slideLeft;animation-delay: 0s;}svg#freepik_stories-credit-card.animated #freepik--Character--inject-15 {animation: 1s 1 forwards cubic-bezier(.36,-0.01,.5,1.38) slideUp;animation-delay: 0s;}            @keyframes slideLeft {                0% {                    opacity: 0;                    transform: translateX(-30px);                }                100% {                    opacity: 1;                    transform: translateX(0);                }            }                    @keyframes lightSpeedRight {              from {                transform: translate3d(50%, 0, 0) skewX(-20deg);                opacity: 0;              }              60% {                transform: skewX(10deg);                opacity: 1;              }              80% {                transform: skewX(-2deg);              }              to {                opacity: 1;                transform: translate3d(0, 0, 0);              }            }                    @keyframes fadeIn {                0% {                    opacity: 0;                }                100% {                    opacity: 1;                }            }                    @keyframes slideUp {                0% {                    opacity: 0;                    transform: translateY(30px);                }                100% {                    opacity: 1;                    transform: inherit;                }            }        </style><g id="freepik--background-complete--inject-15" style="transform-origin: 250px 194.170006px;" class="animable"><rect y="327.45" width="500" height="0.25" style="fill: rgb(230, 230, 230); transform-origin: 250px 327.575px;" id="elzz4umb3c3rh" class="animable"></rect><rect x="343.26" y="338.04" width="34.4" height="0.25" style="fill: rgb(230, 230, 230); transform-origin: 360.46px 338.165px;" id="elykccy70q3y9" class="animable"></rect><rect x="91.68" y="338.16" width="19.36" height="0.25" style="fill: rgb(230, 230, 230); transform-origin: 101.36px 338.285px;" id="elj6bspbrgc" class="animable"></rect><rect x="211.76" y="337.58" width="39.24" height="0.25" style="fill: rgb(230, 230, 230); transform-origin: 231.38px 337.705px;" id="elzc2mru5io8c" class="animable"></rect><rect x="193.22" y="334.02" width="17.54" height="0.25" style="fill: rgb(230, 230, 230); transform-origin: 201.99px 334.145px;" id="elr3hol0zxhkh" class="animable"></rect><rect x="371.57" y="334.14" width="52.99" height="0.25" style="fill: rgb(230, 230, 230); transform-origin: 398.065px 334.265px;" id="el0ddqesmkppvk" class="animable"></rect><g id="elyfpuwql8s6"><path d="M237,337.8H43.91a5.71,5.71,0,0,1-5.7-5.71V60.66A5.71,5.71,0,0,1,43.91,55H237a5.71,5.71,0,0,1,5.71,5.71V332.09A5.71,5.71,0,0,1,237,337.8ZM43.91,55.2a5.46,5.46,0,0,0-5.45,5.46V332.09a5.46,5.46,0,0,0,5.45,5.46H237a5.47,5.47,0,0,0,5.46-5.46V60.66A5.47,5.47,0,0,0,237,55.2Z" style="fill: rgb(230, 230, 230); transform-origin: 140.459999px 196.400009px;" class="animable"></path></g><g id="elp2e73jyb73i"><path d="M453.31,337.8H260.21a5.72,5.72,0,0,1-5.71-5.71V60.66A5.72,5.72,0,0,1,260.21,55h193.1A5.71,5.71,0,0,1,459,60.66V332.09A5.71,5.71,0,0,1,453.31,337.8ZM260.21,55.2a5.47,5.47,0,0,0-5.46,5.46V332.09a5.47,5.47,0,0,0,5.46,5.46h193.1a5.47,5.47,0,0,0,5.46-5.46V60.66a5.47,5.47,0,0,0-5.46-5.46Z" style="fill: rgb(230, 230, 230); transform-origin: 356.75px 196.399994px;" class="animable"></path></g><rect x="286.75" y="18.68" width="136.28" height="158.8" style="fill: rgb(224, 224, 224); transform-origin: 354.89px 98.08px;" id="eldfhe25y9ycw" class="animable"></rect><rect x="288.48" y="18.68" width="138.25" height="158.8" style="fill: rgb(245, 245, 245); transform-origin: 357.605px 98.08px;" id="elxm3gdxk5rqi" class="animable"></rect><rect x="286.75" y="177.47" width="136.28" height="8.9" style="fill: rgb(224, 224, 224); transform-origin: 354.89px 181.92px;" id="elcx2v7qg5dq" class="animable"></rect><rect x="313.52" y="177.47" width="130.15" height="8.9" style="fill: rgb(245, 245, 245); transform-origin: 378.595px 181.92px;" id="el7crmxrm71we" class="animable"></rect><g id="el2bqcgaljy0i"><rect x="284.94" y="89.09" width="145.33" height="127.88" style="fill: rgb(250, 250, 250); transform-origin: 357.605px 153.03px; transform: rotate(90deg);" class="animable"></rect></g><polygon points="312.06 170.74 342.5 25.41 382.4 25.41 351.96 170.74 312.06 170.74" style="fill: rgb(255, 255, 255); transform-origin: 347.229996px 98.075001px;" id="elmu9vhmvjfy" class="animable"></polygon><polygon points="358.42 170.74 388.85 25.41 406.87 25.41 376.44 170.74 358.42 170.74" style="fill: rgb(255, 255, 255); transform-origin: 382.645004px 98.075001px;" id="elssriivaf52" class="animable"></polygon><g id="elegyiyb0ica6"><path d="M282.86,73.4v56.54h15s26.87-17.53,33-53.6a6,6,0,0,0-5.9-7h-38A4.07,4.07,0,0,0,282.86,73.4Z" style="fill: rgb(224, 224, 224); transform-origin: 306.901962px 99.639946px;" class="animable"></path></g><g id="el4u0yudzesbp"><path d="M282.86,220.57V134.5h15s8.6,17.38,17.17,37.36a34.94,34.94,0,0,1-32.13,48.71Z" style="fill: rgb(224, 224, 224); transform-origin: 300.358963px 177.535011px;" class="animable"></path></g><rect x="281.91" y="74.99" width="16.97" height="4.56" rx="1.5" style="fill: rgb(245, 245, 245); transform-origin: 290.395px 77.27px;" id="elzrdqbxg9pnc" class="animable"></rect><g id="elgbhgq0uk82f"><path d="M431,73.4v56.54H416s-26.88-17.53-33-53.6a6,6,0,0,1,5.89-7h38A4.07,4.07,0,0,1,431,73.4Z" style="fill: rgb(224, 224, 224); transform-origin: 406.958023px 99.639904px;" class="animable"></path></g><g id="eltkr67z8j5j"><path d="M431.1,220.59V134.52h-15s-8.6,17.37-17.18,37.36a35,35,0,0,0,32.14,48.71Z" style="fill: rgb(224, 224, 224); transform-origin: 413.61145px 177.555px;" class="animable"></path></g><g id="elr73kem8jf6g"><rect x="414.95" y="129.94" width="16.97" height="4.56" rx="1.5" style="fill: rgb(245, 245, 245); transform-origin: 423.435px 132.22px; transform: rotate(180deg);" class="animable"></rect></g><rect x="140.86" y="88.64" width="60.03" height="65.71" style="fill: rgb(224, 224, 224); transform-origin: 170.875px 121.495px;" id="elnmar2g77dk" class="animable"></rect><rect x="144.11" y="88.64" width="65.22" height="65.71" style="fill: rgb(250, 250, 250); transform-origin: 176.72px 121.495px;" id="elt59sqqkb8ah" class="animable"></rect><g id="elgs7d3mudywb"><rect x="150.59" y="150.57" width="52.26" height="51.77" style="fill: rgb(255, 255, 255); transform-origin: 176.72px 176.455px; transform: rotate(90deg);" class="animable"></rect></g><g id="el91iebeur1ca"><path d="M163,176.45h0a12.35,12.35,0,0,1,12.35-12.34h2.78a12.35,12.35,0,0,1,12.34,12.34h0a12.34,12.34,0,0,1-12.34,12.34h-2.78A12.34,12.34,0,0,1,163,176.45Z" style="fill: rgb(245, 245, 245); transform-origin: 176.735001px 176.449989px;" class="animable"></path></g><g id="elvggepwfu53r"><path d="M92.24,159.27a31.48,31.48,0,1,1,0-63h5.69v63Z" style="fill: rgb(224, 224, 224); transform-origin: 79.334997px 127.770004px;" class="animable"></path></g><circle cx="97.93" cy="72.84" r="31.48" style="fill: rgb(250, 250, 250); transform-origin: 97.93px 72.84px;" id="elnmm2isc4o5h" class="animable"></circle><circle cx="97.93" cy="72.84" r="23.74" style="fill: rgb(255, 255, 255); transform-origin: 97.93px 72.84px;" id="elu5h21mn612" class="animable"></circle><polygon points="107.71 81.72 96.05 73.58 99.75 55.6 103.05 56.28 99.8 72.09 109.64 78.95 107.71 81.72" style="fill: rgb(224, 224, 224); transform-origin: 102.845001px 68.66px;" id="elpv3pwzjmzf" class="animable"></polygon><rect x="309.43" y="215.05" width="42.91" height="115.94" style="fill: rgb(224, 224, 224); transform-origin: 330.885px 273.02px;" id="eljwkrvig4n6i" class="animable"></rect><polygon points="340.88 330.99 352.34 330.99 352.34 311.79 328.87 311.79 340.88 330.99" style="fill: rgb(250, 250, 250); transform-origin: 340.604996px 321.389999px;" id="elcj7jjbas6xo" class="animable"></polygon><rect x="52.18" y="215.05" width="42.91" height="115.94" style="fill: rgb(224, 224, 224); transform-origin: 73.635px 273.02px;" id="elgwesbyrm6ni" class="animable"></rect><rect x="85.09" y="215.05" width="267.26" height="109.33" style="fill: rgb(250, 250, 250); transform-origin: 218.72px 269.715px;" id="el8j3kxdhw7yo" class="animable"></rect><polygon points="96.55 330.99 85.09 330.99 85.09 311.79 108.56 311.79 96.55 330.99" style="fill: rgb(250, 250, 250); transform-origin: 96.824997px 321.389999px;" id="elbxm7szz8ext" class="animable"></polygon><rect x="93.98" y="224.45" width="249.48" height="40.24" style="fill: rgb(240, 240, 240); transform-origin: 218.72px 244.57px;" id="el98w5znmri26" class="animable"></rect><rect x="93.98" y="274.42" width="249.48" height="40.24" style="fill: rgb(240, 240, 240); transform-origin: 218.72px 294.54px;" id="eltcg34zzo54" class="animable"></rect><rect x="93.98" y="224.45" width="212.9" height="40.24" style="fill: rgb(224, 224, 224); transform-origin: 200.43px 244.57px;" id="el5qnnghea9gu" class="animable"></rect><g id="eltyzw5it92ss"><path d="M159.54,284.83H146.59s2.25,7.77,2.25,12.34-9.85,22.48,4.23,22.48,4.22-17.91,4.22-22.48S159.54,284.83,159.54,284.83Z" style="fill: rgb(250, 250, 250); transform-origin: 153.068115px 302.23999px;" class="animable"></path></g><g id="el9ti5u9oze1k"><path d="M108.56,298.33v7.07c0,7.84,7.58,14.25,16.84,14.25h8.35c9.26,0,16.84-6.41,16.84-14.25v-7.07Z" style="fill: rgb(240, 240, 240); transform-origin: 129.574997px 308.98999px;" class="animable"></path></g><rect x="93.98" y="274.42" width="212.9" height="40.24" style="fill: rgb(224, 224, 224); transform-origin: 200.43px 294.54px;" id="el77bmg4y4vxg" class="animable"></rect><g id="elhl3u9wa90q5"><rect x="213.54" y="335.67" width="19.94" height="33.21" style="fill: rgb(255, 255, 255); transform-origin: 223.51px 352.275px; transform: rotate(180deg);" class="animable"></rect></g><g id="elcueu7sjbrf6"><rect x="230.38" y="336.19" width="1.36" height="33.21" style="fill: rgb(230, 230, 230); transform-origin: 231.06px 352.795px; transform: rotate(180deg);" class="animable"></rect></g><g id="elmyfhgojvkfr"><rect x="231.36" y="335.94" width="4.44" height="33.72" rx="0.48" style="fill: rgb(235, 235, 235); transform-origin: 233.58px 352.8px; transform: rotate(180deg);" class="animable"></rect></g><g id="elqkawblfcrv"><rect x="231.36" y="343.64" width="4.44" height="7.88" style="fill: rgb(255, 255, 255); transform-origin: 233.58px 347.58px; transform: rotate(180deg);" class="animable"></rect></g><g id="elf6y4xqov1m9"><rect x="231.36" y="353.94" width="4.44" height="4.86" style="fill: rgb(255, 255, 255); transform-origin: 233.58px 356.37px; transform: rotate(180deg);" class="animable"></rect></g><g id="elzce46waqj4d"><rect x="212.06" y="335.94" width="18.93" height="33.72" rx="0.48" style="fill: rgb(235, 235, 235); transform-origin: 221.525px 352.8px; transform: rotate(180deg);" class="animable"></rect></g><g id="elaqfe8xuojlg"><rect x="203.83" y="332.17" width="22" height="36.64" style="fill: rgb(255, 255, 255); transform-origin: 214.83px 350.49px; transform: rotate(180deg);" class="animable"></rect></g><g id="eltfey1yvm0kk"><rect x="222.4" y="332.74" width="1.49" height="36.64" style="fill: rgb(230, 230, 230); transform-origin: 223.145px 351.06px; transform: rotate(180deg);" class="animable"></rect></g><g id="elhzl5ukipzv"><rect x="223.48" y="332.46" width="4.9" height="37.2" rx="0.53" style="fill: rgb(240, 240, 240); transform-origin: 225.93px 351.06px; transform: rotate(180deg);" class="animable"></rect></g><g id="elahs7lh5t0m7"><rect x="223.48" y="344.31" width="4.9" height="1.27" style="fill: rgb(255, 255, 255); transform-origin: 225.93px 344.945px; transform: rotate(180deg);" class="animable"></rect></g><g id="elj03l0u2paq"><rect x="223.48" y="347.98" width="4.9" height="1.27" style="fill: rgb(255, 255, 255); transform-origin: 225.93px 348.615px; transform: rotate(180deg);" class="animable"></rect></g><g id="el4t62ui0588q"><rect x="223.48" y="351.66" width="4.9" height="1.27" style="fill: rgb(255, 255, 255); transform-origin: 225.93px 352.295px; transform: rotate(180deg);" class="animable"></rect></g><g id="elw41bhbdaqw"><rect x="202.19" y="332.46" width="20.88" height="37.2" rx="0.53" style="fill: rgb(240, 240, 240); transform-origin: 212.63px 351.06px; transform: rotate(180deg);" class="animable"></rect></g><g id="el3a6wks47qnu"><path d="M176.72,356.89a5.64,5.64,0,1,1-5.64-5.63A5.64,5.64,0,0,1,176.72,356.89Z" style="fill: rgb(250, 250, 250); transform-origin: 171.080009px 356.900009px;" class="animable"></path></g><g id="elvkr3tjl6jr"><path d="M167.11,359.58a4.41,4.41,0,1,1-4.41-4.41A4.42,4.42,0,0,1,167.11,359.58Z" style="fill: rgb(250, 250, 250); transform-origin: 162.699997px 359.579987px;" class="animable"></path></g><g id="ellkfyq8rkbun"><path d="M186.37,359.58a5.64,5.64,0,1,1-5.64-5.64A5.65,5.65,0,0,1,186.37,359.58Z" style="fill: rgb(250, 250, 250); transform-origin: 180.729996px 359.579971px;" class="animable"></path></g><g id="elu4hcxl6sll"><path d="M195.61,357.93a5.64,5.64,0,1,1-5.64-5.64A5.64,5.64,0,0,1,195.61,357.93Z" style="fill: rgb(250, 250, 250); transform-origin: 189.970001px 357.929993px;" class="animable"></path></g><g id="elym1u6ilvb4"><path d="M147.18,358.66s.77,11,30.44,11,30.44-11,30.44-11Z" style="fill: rgb(245, 245, 245); transform-origin: 177.619995px 364.160004px;" class="animable"></path></g><g id="eljxmmnxaazi"><path d="M230.38,308.65s1.23,11,48.25,11,48.24-11,48.24-11Z" style="fill: rgb(255, 255, 255); transform-origin: 278.625px 314.149994px;" class="animable"></path></g></g><g id="freepik--Shadow--inject-15" style="transform-origin: 250px 361.290001px;" class="animable"><ellipse cx="250" cy="361.29" rx="193.89" ry="11.32" style="fill: rgb(245, 245, 245); transform-origin: 250px 361.29px;" id="el39ogq5nckvn" class="animable"></ellipse></g><g id="freepik--Coins--inject-15" style="transform-origin: 140.317989px 205.946999px;" class="animable"><g id="eljye941deaen"><circle cx="108.63" cy="228.03" r="54.16" style="fill: rgb(64, 123, 255); transform-origin: 108.63px 228.03px; transform: rotate(-45deg);" class="animable"></circle></g><g id="elamzzrnso2i"><circle cx="108.63" cy="228.03" r="54.16" style="opacity: 0.4; transform-origin: 108.63px 228.03px; transform: rotate(-45deg);" class="animable"></circle></g><g id="elt14ph9lgbc"><circle cx="108.63" cy="228.03" r="45.48" style="opacity: 0.2; transform-origin: 108.63px 228.03px; transform: rotate(-80.32deg);" class="animable"></circle></g><g id="elw4ii2amdqv"><circle cx="111.5" cy="229.83" r="43.66" style="fill: rgb(64, 123, 255); transform-origin: 111.5px 229.83px; transform: rotate(-85.995827deg);" class="animable"></circle></g><g id="el4fnb5i6sfoi"><circle cx="111.5" cy="229.83" r="43.66" style="opacity: 0.4; transform-origin: 111.5px 229.83px; transform: rotate(-85.995827deg);" class="animable"></circle></g><g id="el6j9h4xjfnun"><path d="M126.61,223.86l2.85,12.35A3.51,3.51,0,0,1,129,239a3.67,3.67,0,0,1-2.33,1.65l-10.86,2.51,2,8.69a3.47,3.47,0,0,1-.48,2.77A3.51,3.51,0,0,1,115,256.2a3.68,3.68,0,0,1-2.83-.44,3.48,3.48,0,0,1-1.64-2.28l-2-8.79-10.77,2.49a3.54,3.54,0,0,1-2.74-.46,3.5,3.5,0,0,1-1.65-2.28,3.56,3.56,0,0,1,.46-2.76,3.5,3.5,0,0,1,2.28-1.63l25.2-5.81-1.18-5.13L95,234.9a3.55,3.55,0,0,1-2.76-.43,3.5,3.5,0,0,1-1.63-2.31l-2.84-12.3a3.66,3.66,0,0,1,2.74-4.39L101.23,213l-2-8.7a3.55,3.55,0,0,1,.42-2.73,3.59,3.59,0,0,1,2.44-1.68,3.51,3.51,0,0,1,2.73.46,3.57,3.57,0,0,1,1.62,2.29l2,8.69,11-2.52a3.63,3.63,0,0,1,2.81.47,3.48,3.48,0,0,1,1.66,2.25,3.79,3.79,0,0,1-2.81,4.49l-25.2,5.81L97,226.93l25.11-5.79a3.63,3.63,0,0,1,2.81.47A3.45,3.45,0,0,1,126.61,223.86Z" style="fill: rgb(64, 123, 255); transform-origin: 108.622639px 228.050476px;" class="animable"></path></g><g id="elyzekp4o1zti"><g style="opacity: 0.7; transform-origin: 108.622639px 228.050476px;" class="animable"><g id="ellruqpkazo7k"><path d="M126.61,223.86l2.85,12.35A3.51,3.51,0,0,1,129,239a3.67,3.67,0,0,1-2.33,1.65l-10.86,2.51,2,8.69a3.47,3.47,0,0,1-.48,2.77A3.51,3.51,0,0,1,115,256.2a3.68,3.68,0,0,1-2.83-.44,3.48,3.48,0,0,1-1.64-2.28l-2-8.79-10.77,2.49a3.54,3.54,0,0,1-2.74-.46,3.5,3.5,0,0,1-1.65-2.28,3.56,3.56,0,0,1,.46-2.76,3.5,3.5,0,0,1,2.28-1.63l25.2-5.81-1.18-5.13L95,234.9a3.55,3.55,0,0,1-2.76-.43,3.5,3.5,0,0,1-1.63-2.31l-2.84-12.3a3.66,3.66,0,0,1,2.74-4.39L101.23,213l-2-8.7a3.55,3.55,0,0,1,.42-2.73,3.59,3.59,0,0,1,2.44-1.68,3.51,3.51,0,0,1,2.73.46,3.57,3.57,0,0,1,1.62,2.29l2,8.69,11-2.52a3.63,3.63,0,0,1,2.81.47,3.48,3.48,0,0,1,1.66,2.25,3.79,3.79,0,0,1-2.81,4.49l-25.2,5.81L97,226.93l25.11-5.79a3.63,3.63,0,0,1,2.81.47A3.45,3.45,0,0,1,126.61,223.86Z" style="fill: rgb(255, 255, 255); transform-origin: 108.622639px 228.050476px;" class="animable"></path></g></g></g><g id="el86v2tsx0djd"><circle cx="195.33" cy="160.54" r="37.8" style="fill: rgb(64, 123, 255); transform-origin: 195.33px 160.54px; transform: rotate(-49.8deg);" class="animable"></circle></g><g id="ela4vkq0735tf"><circle cx="195.33" cy="160.54" r="37.8" style="opacity: 0.4; transform-origin: 195.33px 160.54px; transform: rotate(-49.8deg);" class="animable"></circle></g><g id="elwfam99fk0zi"><circle cx="195.33" cy="160.54" r="31.74" style="opacity: 0.2; transform-origin: 195.33px 160.54px; transform: rotate(-50.42deg);" class="animable"></circle></g><g id="elhd5qhuj7vy"><circle cx="196.54" cy="162.57" r="30.47" style="fill: rgb(64, 123, 255); transform-origin: 196.54px 162.57px; transform: rotate(-52.61deg);" class="animable"></circle></g><g id="eliti15vf8j"><circle cx="196.54" cy="162.57" r="30.47" style="opacity: 0.4; transform-origin: 196.54px 162.57px; transform: rotate(-52.61deg);" class="animable"></circle></g><g id="elgh8xfxs6ogc"><path d="M207.82,163.66l-2.15,8.58a2.41,2.41,0,0,1-1.18,1.55,2.58,2.58,0,0,1-2,.29L195,172.19l-1.52,6a2.42,2.42,0,0,1-1.18,1.56,2.46,2.46,0,0,1-1.92.29,2.57,2.57,0,0,1-1.61-1.17,2.46,2.46,0,0,1-.3-1.94l1.53-6.1L182.5,169a2.47,2.47,0,0,1-1.56-1.16,2.43,2.43,0,0,1-.3-1.93,2.46,2.46,0,0,1,1.16-1.58,2.49,2.49,0,0,1,1.94-.28l17.5,4.39.9-3.56-17.45-4.38a2.43,2.43,0,0,1-1.57-1.15,2.39,2.39,0,0,1-.28-1.94l2.14-8.55a2.54,2.54,0,0,1,3.1-1.85l7.42,1.86,1.52-6A2.51,2.51,0,0,1,200.2,141a2.39,2.39,0,0,1,1.54,1.15,2.47,2.47,0,0,1,.29,1.93l-1.52,6,7.6,1.91a2.53,2.53,0,0,1,1.6,1.19,2.44,2.44,0,0,1,.32,1.92,2.58,2.58,0,0,1-1.2,1.6,2.55,2.55,0,0,1-2,.3l-17.51-4.39-.88,3.54,17.44,4.37a2.53,2.53,0,0,1,1.6,1.19A2.39,2.39,0,0,1,207.82,163.66Z" style="fill: rgb(64, 123, 255); transform-origin: 195.33078px 160.506119px;" class="animable"></path></g><g id="elw3zordx2rk"><g style="opacity: 0.7; transform-origin: 195.33078px 160.506119px;" class="animable"><g id="ele8wv2y3akje"><path d="M207.82,163.66l-2.15,8.58a2.41,2.41,0,0,1-1.18,1.55,2.58,2.58,0,0,1-2,.29L195,172.19l-1.52,6a2.42,2.42,0,0,1-1.18,1.56,2.46,2.46,0,0,1-1.92.29,2.57,2.57,0,0,1-1.61-1.17,2.46,2.46,0,0,1-.3-1.94l1.53-6.1L182.5,169a2.47,2.47,0,0,1-1.56-1.16,2.43,2.43,0,0,1-.3-1.93,2.46,2.46,0,0,1,1.16-1.58,2.49,2.49,0,0,1,1.94-.28l17.5,4.39.9-3.56-17.45-4.38a2.43,2.43,0,0,1-1.57-1.15,2.39,2.39,0,0,1-.28-1.94l2.14-8.55a2.54,2.54,0,0,1,3.1-1.85l7.42,1.86,1.52-6A2.51,2.51,0,0,1,200.2,141a2.39,2.39,0,0,1,1.54,1.15,2.47,2.47,0,0,1,.29,1.93l-1.52,6,7.6,1.91a2.53,2.53,0,0,1,1.6,1.19,2.44,2.44,0,0,1,.32,1.92,2.58,2.58,0,0,1-1.2,1.6,2.55,2.55,0,0,1-2,.3l-17.51-4.39-.88,3.54,17.44,4.37a2.53,2.53,0,0,1,1.6,1.19A2.39,2.39,0,0,1,207.82,163.66Z" style="fill: rgb(255, 255, 255); transform-origin: 195.33078px 160.506119px;" class="animable"></path></g></g></g></g><g id="freepik--credit-card--inject-15" style="transform-origin: 249.999992px 268.165016px;" class="animable"><rect x="102.26" y="334.02" width="1" height="11.29" style="fill: rgb(64, 123, 255); transform-origin: 102.76px 339.665px;" id="elasm3obl1v9" class="animable"></rect><g id="elqsyyow6zbpc"><rect x="102.26" y="334.02" width="1" height="11.29" style="opacity: 0.1; transform-origin: 102.76px 339.665px;" class="animable"></rect></g><rect x="396.74" y="244.57" width="1" height="15.47" style="fill: rgb(64, 123, 255); transform-origin: 397.24px 252.305px;" id="el3ffcj4dbv3o" class="animable"></rect><rect x="396.74" y="268.16" width="1" height="8.39" style="fill: rgb(64, 123, 255); transform-origin: 397.24px 272.355px;" id="el808c6se9knj" class="animable"></rect><g id="elqlm3zp06pjf"><rect x="396.74" y="244.57" width="1" height="15.47" style="opacity: 0.1; transform-origin: 397.24px 252.305px;" class="animable"></rect></g><g id="eldawd8top4wu"><rect x="396.74" y="268.16" width="1" height="8.39" style="opacity: 0.1; transform-origin: 397.24px 272.355px;" class="animable"></rect></g><rect x="105.76" y="177.49" width="288.49" height="181.35" rx="15.05" style="fill: rgb(64, 123, 255); transform-origin: 250.005px 268.165px;" id="elabev60jrn55" class="animable"></rect><g id="eljg1gk8ibip"><rect x="105.76" y="177.49" width="288.49" height="181.35" rx="15.05" style="opacity: 0.2; transform-origin: 250.005px 268.165px;" class="animable"></rect></g><g id="elxwtp8ai9v9"><path d="M347.55,295.59a18.67,18.67,0,0,0,0-37.34h-24.1a18.67,18.67,0,0,0,0,37.34Z" style="fill: rgb(64, 123, 255); transform-origin: 335.499985px 276.919998px;" class="animable"></path></g><rect x="133.79" y="240.63" width="57.43" height="42.03" rx="6.48" style="fill: rgb(64, 123, 255); transform-origin: 162.505px 261.645px;" id="elxmji29r6za" class="animable"></rect><g id="elbcsls1mm6s4"><rect x="133.79" y="240.63" width="57.43" height="42.03" rx="6.48" style="fill: rgb(255, 255, 255); opacity: 0.3; transform-origin: 162.505px 261.645px;" class="animable"></rect></g><rect x="133.79" y="198.71" width="86.31" height="9.17" rx="4.59" style="fill: rgb(64, 123, 255); transform-origin: 176.945px 203.295px;" id="el9adgymdc5aw" class="animable"></rect><g id="elkxvqcxz843m"><rect x="133.79" y="198.71" width="86.31" height="9.17" rx="4.59" style="fill: rgb(255, 255, 255); opacity: 0.3; transform-origin: 176.945px 203.295px;" class="animable"></rect></g><rect x="133.79" y="303.52" width="48.15" height="19.75" rx="6.73" style="fill: rgb(64, 123, 255); transform-origin: 157.865px 313.395px;" id="ela6xfa26uijs" class="animable"></rect><g id="els0kcvtm1rz"><rect x="133.79" y="303.52" width="48.15" height="19.75" rx="6.73" style="fill: rgb(255, 255, 255); opacity: 0.3; transform-origin: 157.865px 313.395px;" class="animable"></rect></g><rect x="195.21" y="303.52" width="48.15" height="19.75" rx="6.73" style="fill: rgb(64, 123, 255); transform-origin: 219.285px 313.395px;" id="eltw9h45u2sfo" class="animable"></rect><g id="elq3ntg2hwp8i"><rect x="195.21" y="303.52" width="48.15" height="19.75" rx="6.73" style="fill: rgb(255, 255, 255); opacity: 0.3; transform-origin: 219.285px 313.395px;" class="animable"></rect></g><rect x="256.64" y="303.52" width="48.15" height="19.75" rx="6.73" style="fill: rgb(64, 123, 255); transform-origin: 280.715px 313.395px;" id="elgp5jn39yla" class="animable"></rect><g id="eldd9fj40dwbt"><rect x="256.64" y="303.52" width="48.15" height="19.75" rx="6.73" style="fill: rgb(255, 255, 255); opacity: 0.3; transform-origin: 280.715px 313.395px;" class="animable"></rect></g><rect x="318.06" y="303.52" width="48.15" height="19.75" rx="6.73" style="fill: rgb(64, 123, 255); transform-origin: 342.135px 313.395px;" id="elmuy2tkd7uk" class="animable"></rect><g id="elbpjn6a15855"><rect x="318.06" y="303.52" width="48.15" height="19.75" rx="6.73" style="fill: rgb(255, 255, 255); opacity: 0.3; transform-origin: 342.135px 313.395px;" class="animable"></rect></g></g><g id="freepik--Character--inject-15" style="transform-origin: 284.72596px 260.775002px;" class="animable"><g id="elc17j5oiy89"><path d="M293,166.82c-2.37,6.69-5,13.16-7.79,19.63a168.66,168.66,0,0,1-9.7,19.14c-.49.79-1,1.58-1.53,2.37l-.39.59-.53.73c-.36.46-.7.86-1,1.25a52.21,52.21,0,0,1-4,4c-2.67,2.47-5.39,4.71-8.14,6.92-5.52,4.38-11.16,8.48-17,12.37l-3.49-4.33L254.13,215c2.43-2.41,4.84-4.84,7.09-7.27,1.11-1.21,2.19-2.45,3.08-3.59.22-.28.41-.56.58-.8l.21-.34.29-.52c.39-.69.8-1.36,1.18-2.07,3.06-5.75,5.76-12,8.36-18.34s5.1-12.73,7.5-19.07Z" style="fill: rgb(228, 137, 123); transform-origin: 266.214973px 198.409996px;" class="animable"></path></g><g id="el7qawqhyw1ct"><path d="M295.81,162c2.27,6.64-11.07,26.17-11.07,26.17L272,181.08a149,149,0,0,1,7.68-17.8C284.14,154.84,293.32,154.71,295.81,162Z" style="fill: rgb(64, 123, 255); transform-origin: 284.034988px 172.449692px;" class="animable"></path></g><g id="elab5p716arku"><path d="M295.81,162c2.27,6.64-11.07,26.17-11.07,26.17L272,181.08a149,149,0,0,1,7.68-17.8C284.14,154.84,293.32,154.71,295.81,162Z" style="fill: rgb(255, 255, 255); opacity: 0.7; transform-origin: 284.034988px 172.449692px;" class="animable"></path></g><g id="elx481swo5ea"><path d="M296,162.83c-2.86-1.37-6.15-.22-9.62,5.26s-6.42,14.63-6.74,17.24l5.11,2.83S297.06,170.12,296,162.83Z" style="fill: rgb(64, 123, 255); opacity: 0.31; transform-origin: 287.852371px 175.231636px;" class="animable"></path></g><g id="elh06ags62cse"><path d="M287.18,156.92s-9.52,22.39-2.66,64.08h39.65c.49-6.09-2.31-35.78,4.56-64.46a101.24,101.24,0,0,0-13.22-1.68,147.9,147.9,0,0,0-16.85,0A76.45,76.45,0,0,0,287.18,156.92Z" style="fill: rgb(64, 123, 255); transform-origin: 305.382568px 187.809921px;" class="animable"></path></g><g id="elkq3vibrz4uk"><path d="M287.18,156.92s-9.52,22.39-2.66,64.08h39.65c.49-6.09-2.31-35.78,4.56-64.46a101.24,101.24,0,0,0-13.22-1.68,147.9,147.9,0,0,0-16.85,0A76.45,76.45,0,0,0,287.18,156.92Z" style="fill: rgb(255, 255, 255); opacity: 0.7; transform-origin: 305.382568px 187.809921px;" class="animable"></path></g><polygon points="338.21 343.67 332.34 348.93 321.15 337.29 327.03 332.03 338.21 343.67" style="fill: rgb(228, 137, 123); transform-origin: 329.679993px 340.479996px;" id="elp331luo593" class="animable"></polygon><polygon points="318.08 354.62 310.67 354.62 309.71 337.45 317.12 337.45 318.08 354.62" style="fill: rgb(228, 137, 123); transform-origin: 313.894989px 346.035004px;" id="eliq2808s5x7r" class="animable"></polygon><polygon points="321.16 337.29 326.92 343.29 332.8 338.03 327.04 332.03 321.16 337.29" style="fill: rgb(206, 111, 100); transform-origin: 326.979996px 337.660004px;" id="el10bjm3nfqch" class="animable"></polygon><polygon points="317.12 337.46 309.71 337.46 310.21 346.31 317.62 346.31 317.12 337.46" style="fill: rgb(206, 111, 100); transform-origin: 313.664993px 341.884995px;" id="el2sntuf2t6n" class="animable"></polygon><g id="elu7s45jdhyq"><path d="M284.52,221s-7.81,54.06-10.47,83.48c-2.14,23.61,48.91,94,48.91,94l9.87-9.29s-37.28-63.11-34.41-89.39c2.78-25.45,12.2-78.83,12.2-78.83Z" style="fill: rgb(64, 123, 255); transform-origin: 303.407257px 309.724998px;" class="animable"></path></g><g id="elfedrxs8it0g"><path d="M284.52,221s-7.81,54.06-10.47,83.48c-2.14,23.61,48.91,94,48.91,94l9.87-9.29s-37.28-63.11-34.41-89.39c2.78-25.45,12.2-78.83,12.2-78.83Z" style="opacity: 0.7; transform-origin: 303.407257px 309.724998px;" class="animable"></path></g><g id="ele6bgdqwjwgk"><path d="M298.42,299.83c1.43-13.11,4.63-33.65,7.38-50.47-1.44-2.82-5.48-8.53-5.48-8.53-3.62,12.51-11.49,59.67-.26,123.36,11.7,18.86,22.9,34.32,22.9,34.32l1.53-24.32C313.68,353.85,296.43,318,298.42,299.83Z" style="opacity: 0.2; transform-origin: 309.370056px 319.669998px;" class="animable"></path></g><g id="elk0pt6fg6icq"><path d="M298.62,221s-.7,56.65.5,77.88c1.31,23.24,7.91,100.24,7.91,100.24h13.58S320.2,324,321,301c.89-25,3.19-80,3.19-80Z" style="fill: rgb(64, 123, 255); transform-origin: 311.303528px 310.059998px;" class="animable"></path></g><g id="ele5bqbabp0gh"><path d="M298.62,221s-.7,56.65.5,77.88c1.31,23.24,7.91,100.24,7.91,100.24h13.58S320.2,324,321,301c.89-25,3.19-80,3.19-80Z" style="opacity: 0.7; transform-origin: 311.303528px 310.059998px;" class="animable"></path></g><g id="ele5z8s2v11j6"><path d="M310.28,408.72h8.33a.53.53,0,0,1,.55.5l.41,6.59a1.31,1.31,0,0,1-1.3,1.32c-2.9-.05-4.29-.22-7.95-.22-2.25,0-11.83.24-14.94.24s-3-3.08-1.71-3.36c5.91-1.25,13.24-3,15.34-4.62A2.09,2.09,0,0,1,310.28,408.72Z" style="fill: rgb(38, 50, 56); transform-origin: 306.194366px 412.934799px;" class="animable"></path></g><g id="el3j9r85p97as"><path d="M330.72,401.78l7.14-4.81a.66.66,0,0,1,.82,0l5.46,5.51a1.1,1.1,0,0,1-.26,1.67c-4.56,3.51-7.85,6.16-10.45,9.08-3,3.41-4.62,3.9-11.62,3.9-3.24,0-5.07-2.73-3.75-3.15,11.66-3.69,8.54-5.3,11.38-10.71A4,4,0,0,1,330.72,401.78Z" style="fill: rgb(38, 50, 56); transform-origin: 331.019745px 406.978592px;" class="animable"></path></g><g id="elab7ldjt2r4w"><path d="M241.11,228.56l-7.73.27,1.62,6.06s8.08.72,8.8-1.72Z" style="fill: rgb(228, 137, 123); transform-origin: 238.590004px 231.774597px;" class="animable"></path></g><polygon points="225.04 177.49 230.46 180.65 235 179.94 233.38 173.88 225.04 177.49" style="fill: rgb(228, 137, 123); transform-origin: 230.019997px 177.264999px;" id="eltna7vdpwhp" class="animable"></polygon><g id="eljbhe8on5pc"><path d="M319.87,163.62c-.82,4.72.27,16,4.32,29.06a190.68,190.68,0,0,1,3.89-33.29v-.06C325.48,159.07,320.66,159.19,319.87,163.62Z" style="fill: rgb(64, 123, 255); opacity: 0.31; transform-origin: 323.847763px 175.964729px;" class="animable"></path></g><g id="elt6puh2feypp"><path d="M314.5,135.88c-1.25,5.42-2.66,15.36,1,19,0,0-1.58,4.49-11.66,4.49-11.08,0-5.19-4.49-5.19-4.49,6.1-1.44,6.1-5.93,5.19-10.14Z" style="fill: rgb(228, 137, 123); transform-origin: 306.292969px 147.625008px;" class="animable"></path></g><polygon points="303.56 104.4 300.56 107.59 302.03 110.67 304.42 110.78 306.46 107.84 303.56 104.4" style="fill: rgb(64, 123, 255); transform-origin: 303.509995px 107.59px;" id="el7r6atpgai27" class="animable"></polygon><g id="elz5ashajnygo"><path d="M310.16,139.49l-6.31,5.22a17.35,17.35,0,0,1,.42,3c2.32-.33,5.58-2.87,5.91-5.29A7.88,7.88,0,0,0,310.16,139.49Z" style="fill: rgb(206, 111, 100); transform-origin: 307.078796px 143.600006px;" class="animable"></path></g><g id="elykumqykwb8"><path d="M301.35,117.5c-3.79,1.29-6.82,11.34-2.4,14S308.55,115.05,301.35,117.5Z" style="fill: rgb(38, 50, 56); transform-origin: 300.842865px 124.518581px;" class="animable"></path></g><g id="el2d4rf3pjqn8"><path d="M316.87,130.2c-2.26,7-3.22,11.23-7.78,14.1a9.59,9.59,0,0,1-14.77-8.38c.09-6.73,3.77-17.09,11.52-18.39A9.71,9.71,0,0,1,316.87,130.2Z" style="fill: rgb(228, 137, 123); transform-origin: 305.852692px 131.588192px;" class="animable"></path></g><g id="elk4mfn20qkyg"><path d="M322.47,118.5c-2.26,5.46,3,.9,1.64,7.38-.88,4.22-8.5,14.33-11.44,13.41s-2.91-8.09.84-13.16c2.16-2.91-2.51-6.21-13-5.86s-16.83-5.55-2.89-9.88c0,0-5.14,3-2.09,4C299.85,116,327,107.56,322.47,118.5Z" style="fill: rgb(38, 50, 56); transform-origin: 306.96373px 124.869411px;" class="animable"></path></g><g id="eloedse3u9fj"><path d="M320.47,121c-.11,0,2.35-.61,3.66-5C324.13,116.07,323.7,122.54,320.47,121Z" style="fill: rgb(38, 50, 56); transform-origin: 322.298218px 118.618443px;" class="animable"></path></g><g id="elqdl7gw19mc"><path d="M300.84,111.36c-6.45,2-3.78,4.25-1.11,4.81l6.12-2.4C296.55,115,300.84,111.36,300.84,111.36Z" style="fill: rgb(38, 50, 56); transform-origin: 301.345337px 113.764999px;" class="animable"></path></g><g id="eloa1xjkz3xa"><path d="M318.11,138.75a7.32,7.32,0,0,1-5,2.07c-2.47,0-3-2.34-1.67-4.3,1.18-1.76,3.88-3.88,6.06-2.93S319.75,137.14,318.11,138.75Z" style="fill: rgb(228, 137, 123); transform-origin: 314.989594px 137.087402px;" class="animable"></path></g><g id="elcddpqf5m39e"><path d="M305.48,129.81c-.15.58-.58,1-1,.9s-.57-.63-.42-1.21.58-1,1-.89S305.63,129.23,305.48,129.81Z" style="fill: rgb(38, 50, 56); transform-origin: 304.770004px 129.658592px;" class="animable"></path></g><g id="el92gi11ttrlp"><path d="M298.88,128.36c-.15.58-.58,1-1,.9s-.57-.62-.42-1.2.57-1,1-.9S299,127.78,298.88,128.36Z" style="fill: rgb(38, 50, 56); transform-origin: 298.16478px 128.209999px;" class="animable"></path></g><g id="elgabffuk7nv"><path d="M300.9,129.11a22.57,22.57,0,0,1-4,4.35,3.42,3.42,0,0,0,2.66,1.13Z" style="fill: rgb(222, 87, 83); transform-origin: 298.899994px 131.851028px;" class="animable"></path></g><g id="eli8om6ezp3ns"><path d="M302,136.7a5.53,5.53,0,0,1-1.23-.14.18.18,0,0,1-.13-.21.18.18,0,0,1,.21-.13,5,5,0,0,0,4.24-1,.18.18,0,0,1,.25,0,.18.18,0,0,1,0,.25A5.08,5.08,0,0,1,302,136.7Z" style="fill: rgb(38, 50, 56); transform-origin: 303.013367px 135.934769px;" class="animable"></path></g><g id="elqxk21wu3b8q"><path d="M308.1,128.14a.34.34,0,0,1-.32-.21,2.7,2.7,0,0,0-1.9-1.61.35.35,0,0,1-.3-.4.36.36,0,0,1,.4-.3,3.38,3.38,0,0,1,2.44,2,.34.34,0,0,1-.18.46A.35.35,0,0,1,308.1,128.14Z" style="fill: rgb(38, 50, 56); transform-origin: 307.014359px 126.878624px;" class="animable"></path></g><g id="elto2vj99g5vt"><path d="M296.65,125.49a.35.35,0,0,1-.22-.08.36.36,0,0,1-.05-.5,3.67,3.67,0,0,1,2.94-1.37.35.35,0,0,1,.32.38.34.34,0,0,1-.38.32,2.94,2.94,0,0,0-2.34,1.12A.34.34,0,0,1,296.65,125.49Z" style="fill: rgb(38, 50, 56); transform-origin: 297.971191px 124.514561px;" class="animable"></path></g><g id="elfwpohz9s99"><path d="M330.65,161.65c.78,1.21,1.43,2.28,2.09,3.44s1.29,2.28,1.91,3.44c1.22,2.31,2.37,4.67,3.42,7.08A73.7,73.7,0,0,1,343,191l.1.51.05.25.07.42a11.45,11.45,0,0,1,.13,1.69,14.87,14.87,0,0,1-.3,2.82,23.81,23.81,0,0,1-1.46,4.46,47.7,47.7,0,0,1-4,7.21,84,84,0,0,1-9.88,12.13L323.36,217c2.42-4.22,4.83-8.6,6.85-12.89a49,49,0,0,0,2.54-6.34,14.26,14.26,0,0,0,.58-2.78,4.16,4.16,0,0,0,0-.93c0-.09,0-.17-.06-.18s0,0,0-.05l-.06-.2-.12-.41a63.48,63.48,0,0,0-2.25-6.5c-.88-2.17-1.86-4.33-2.89-6.48s-2.14-4.27-3.28-6.39c-.56-1.06-1.15-2.11-1.74-3.15l-1.76-3Z" style="fill: rgb(228, 137, 123); transform-origin: 332.259995px 191.070007px;" class="animable"></path></g><g id="elutc5l82ps"><path d="M307.66,410a2,2,0,0,1-1.4-.39,1,1,0,0,1-.22-.94.67.67,0,0,1,.41-.49c.91-.36,3,1.08,3.24,1.24a.16.16,0,0,1,.07.18.17.17,0,0,1-.13.14A9.5,9.5,0,0,1,307.66,410Zm-.87-1.53a.66.66,0,0,0-.21,0,.29.29,0,0,0-.19.24.63.63,0,0,0,.12.62c.34.34,1.31.38,2.64.12A5.94,5.94,0,0,0,306.79,408.48Z" style="fill: rgb(255, 255, 255); transform-origin: 307.883575px 409.066223px;" class="animable"></path></g><g id="el5d2zopw7pjp"><path d="M309.59,409.75l-.09,0c-.74-.44-1.84-2-1.67-2.8a.66.66,0,0,1,.63-.53.89.89,0,0,1,.73.24c.75.73.58,2.86.58,2.95a.18.18,0,0,1-.1.14Zm-1-3h-.08c-.25,0-.31.15-.33.25-.11.53.62,1.7,1.26,2.24a3.85,3.85,0,0,0-.48-2.34A.53.53,0,0,0,308.58,406.75Z" style="fill: rgb(255, 255, 255); transform-origin: 308.799469px 408.081345px;" class="animable"></path></g><g id="eldy5d9vz178j"><path d="M325.92,405.8a1.3,1.3,0,0,1-.54-.1.88.88,0,0,1-.53-.62.51.51,0,0,1,.11-.49c.67-.81,4.18-.57,4.58-.54a.17.17,0,0,1,.16.13.18.18,0,0,1-.08.19A9.34,9.34,0,0,1,325.92,405.8Zm2.12-1.46c-1.23,0-2.52.12-2.81.47a.17.17,0,0,0,0,.18.53.53,0,0,0,.32.39c.56.23,1.82-.15,3.41-1Z" style="fill: rgb(255, 255, 255); transform-origin: 327.266052px 404.897156px;" class="animable"></path></g><g id="elys7vrazg2c"><path d="M329.53,404.4h0c-1,0-3.25-.77-3.42-1.57,0-.2,0-.48.48-.71,1.72-.81,3.05,1.91,3.11,2a.23.23,0,0,1,0,.18A.19.19,0,0,1,329.53,404.4Zm-2.31-2.07a1.09,1.09,0,0,0-.49.11c-.21.1-.31.21-.29.31.1.47,1.72,1.13,2.78,1.27C328.9,403.48,328.13,402.33,327.22,402.33Z" style="fill: rgb(255, 255, 255); transform-origin: 327.914154px 403.184769px;" class="animable"></path></g><g id="elmuyn32frbkb"><path d="M325.34,215.38,318,214.09l3.79,8.55s6.73,0,6.43-3.52Z" style="fill: rgb(228, 137, 123); transform-origin: 323.114868px 218.364998px;" class="animable"></path></g><polygon points="312.45 163.43 315.92 170.34 321.75 167.68 317.96 159.14 312.45 163.43" style="fill: rgb(228, 137, 123); transform-origin: 317.100006px 164.739998px;" id="elgi3yp7gfzb" class="animable"></polygon><polygon points="333.43 333.7 322.36 344.13 318.79 340.3 331.46 328.76 333.43 333.7" style="fill: rgb(64, 123, 255); transform-origin: 326.110001px 336.445007px;" id="el5731skv1k4o" class="animable"></polygon><g id="el2mfieekp0q9"><polygon points="333.43 333.7 322.36 344.13 318.79 340.3 331.46 328.76 333.43 333.7" style="fill: rgb(255, 255, 255); opacity: 0.6; transform-origin: 326.110001px 336.445007px;" class="animable"></polygon></g><polygon points="321.15 344.17 306.48 344.17 305.67 339.02 321.86 339.82 321.15 344.17" style="fill: rgb(64, 123, 255); transform-origin: 313.764999px 341.595001px;" id="elu5s3ee5dsu" class="animable"></polygon><g id="ellw2tb3gemrm"><polygon points="321.15 344.17 306.48 344.17 305.67 339.02 321.86 339.82 321.15 344.17" style="fill: rgb(255, 255, 255); opacity: 0.6; transform-origin: 313.764999px 341.595001px;" class="animable"></polygon></g><g id="elbimv3nrjqnl"><path d="M328.73,156.54c7,1,14.17,25.32,14.17,25.32l-15,8.32s-6.09-11.56-9-20.14C315.85,161.05,321.24,155.44,328.73,156.54Z" style="fill: rgb(64, 123, 255); transform-origin: 330.465775px 173.291428px;" class="animable"></path></g><g id="elftp9nu6umaw"><path d="M328.73,156.54c7,1,14.17,25.32,14.17,25.32l-15,8.32s-6.09-11.56-9-20.14C315.85,161.05,321.24,155.44,328.73,156.54Z" style="fill: rgb(255, 255, 255); opacity: 0.7; transform-origin: 330.465775px 173.291428px;" class="animable"></path></g><g id="el5q7qhz4nckl"><polygon points="303.56 104.4 300.56 107.59 302.03 110.67 304.42 110.78 306.46 107.84 303.56 104.4" style="opacity: 0.2; transform-origin: 303.509995px 107.59px;" class="animable"></polygon></g><g id="elaagyrbdphwo"><path d="M302.29,165.07s-5.69,23.57-5.91,28.47c-.31,6.74,2.51,18.25,2.51,18.25s4-9.57,4.82-18.46.21-23.27.58-28.26Z" style="fill: rgb(64, 123, 255); transform-origin: 300.32312px 188.430008px;" class="animable"></path></g><g id="elptqvkv1lcp"><path d="M302.29,165.07s-5.69,23.57-5.91,28.47c-.31,6.74,2.51,18.25,2.51,18.25s4-9.57,4.82-18.46.21-23.27.58-28.26Z" style="opacity: 0.2; transform-origin: 300.32312px 188.430008px;" class="animable"></path></g><g id="elpy0cn3dfym9"><path d="M303.56,159.35a13,13,0,0,1,1.92,6.11s12.48-4.4,11.89-10.85c0,0-1.77-1.05-2.89-1.9C314.48,152.71,314.06,156.77,303.56,159.35Z" style="fill: rgb(64, 123, 255); transform-origin: 310.475159px 159.085014px;" class="animable"></path></g><g id="elpm8qayvf6s"><path d="M303.56,159.35a13,13,0,0,1,1.92,6.11s12.48-4.4,11.89-10.85c0,0-1.77-1.05-2.89-1.9C314.48,152.71,314.06,156.77,303.56,159.35Z" style="fill: rgb(255, 255, 255); opacity: 0.6; transform-origin: 310.475159px 159.085014px;" class="animable"></path></g><g id="el4pean3nuut"><path d="M303.56,159.35a17.56,17.56,0,0,0-2.44,5.72s-5.65-3.82-3.95-10.19a21.09,21.09,0,0,1,3.19-1S299.62,158,303.56,159.35Z" style="fill: rgb(64, 123, 255); transform-origin: 300.205536px 159.475014px;" class="animable"></path></g><g id="el86ikah814ej"><path d="M303.56,159.35a17.56,17.56,0,0,0-2.44,5.72s-5.65-3.82-3.95-10.19a21.09,21.09,0,0,1,3.19-1S299.62,158,303.56,159.35Z" style="fill: rgb(255, 255, 255); opacity: 0.6; transform-origin: 300.205536px 159.475014px;" class="animable"></path></g></g><defs>     <filter id="active" height="200%">         <feMorphology in="SourceAlpha" result="DILATED" operator="dilate" radius="2"></feMorphology>                <feFlood flood-color="#32DFEC" flood-opacity="1" result="PINK"></feFlood>        <feComposite in="PINK" in2="DILATED" operator="in" result="OUTLINE"></feComposite>        <feMerge>            <feMergeNode in="OUTLINE"></feMergeNode>            <feMergeNode in="SourceGraphic"></feMergeNode>        </feMerge>    </filter>    <filter id="hover" height="200%">        <feMorphology in="SourceAlpha" result="DILATED" operator="dilate" radius="2"></feMorphology>                <feFlood flood-color="#ff0000" flood-opacity="0.5" result="PINK"></feFlood>        <feComposite in="PINK" in2="DILATED" operator="in" result="OUTLINE"></feComposite>        <feMerge>            <feMergeNode in="OUTLINE"></feMergeNode>            <feMergeNode in="SourceGraphic"></feMergeNode>        </feMerge>            <feColorMatrix type="matrix" values="0   0   0   0   0                0   1   0   0   0                0   0   0   0   0                0   0   0   1   0 "></feColorMatrix>    </filter></defs></svg>